<svg width="42" height="31" viewBox="0 0 42 31" fill="none" xmlns="http://www.w3.org/2000/svg">
<path d="M20.6583 22.4091L23.05 20.1061L17.5833 14.8419V7.27458H14.1667V16.1579L20.6583 22.4091ZM31.25 29.4829V25.8638C33.3569 24.9042 35.0226 23.4921 36.2469 21.6277C37.4712 19.7633 38.0833 17.7207 38.0833 15.4999C38.0833 13.2791 37.4712 11.2364 36.2469 9.37204C35.0226 7.50763 33.3569 6.09562 31.25 5.136V1.51687C34.3535 2.55874 36.8374 4.36173 38.7017 6.92583C40.5661 9.48993 41.4989 12.348 41.5 15.4999C41.5 18.6529 40.5672 21.5115 38.7017 24.0756C36.8363 26.6397 34.3523 28.4421 31.25 29.4829ZM15.875 30.3054C13.7396 30.3054 11.7391 29.9145 9.87363 29.1325C8.00813 28.3506 6.38521 27.2955 5.00488 25.9674C3.62454 24.6371 2.52836 23.0743 1.71634 21.279C0.904308 19.4837 0.498864 17.5573 0.500002 15.4999C0.500002 13.4436 0.906016 11.5172 1.71804 9.72079C2.53007 7.92438 3.62625 6.36157 5.00659 5.03236C6.38692 3.70315 8.00983 2.64812 9.87533 1.86726C11.7408 1.08641 13.7407 0.695433 15.875 0.694336C18.0104 0.694336 20.0109 1.08531 21.8764 1.86726C23.7419 2.64922 25.3648 3.70425 26.7451 5.03236C28.1255 6.36267 29.2211 7.92548 30.032 9.72079C30.8428 11.5161 31.2489 13.4425 31.25 15.4999C31.25 17.5562 30.844 19.4826 30.032 21.279C29.2199 23.0754 28.1243 24.6382 26.7451 25.9674C25.3637 27.2966 23.7407 28.3522 21.8764 29.1342C20.012 29.9161 18.0116 30.3065 15.875 30.3054Z" fill="#FED11B"/>
</svg>
