<svg width="38" height="38" viewBox="0 0 38 38" fill="none" xmlns="http://www.w3.org/2000/svg">
<path d="M25.475 28.065L28.065 25.475C28.25 25.29 28.3425 25.0742 28.3425 24.8275C28.3425 24.5808 28.25 24.365 28.065 24.18L21.775 17.8437C21.8983 17.5046 21.9908 17.1654 22.0525 16.8262C22.1142 16.4871 22.145 16.1017 22.145 15.67C22.145 13.9125 21.5209 12.4091 20.2728 11.1597C19.0247 9.91033 17.5212 9.28627 15.7625 9.2875C15.2383 9.2875 14.7142 9.35718 14.19 9.49655C13.6658 9.63592 13.1571 9.82832 12.6637 10.0737L17.0112 14.4212L14.4212 17.0112L10.0737 12.6637C9.82708 13.1571 9.63468 13.6658 9.49655 14.19C9.35842 14.7142 9.28873 15.2383 9.2875 15.7625C9.2875 17.52 9.91218 19.0234 11.1615 20.2728C12.4109 21.5222 13.9137 22.1462 15.67 22.145C16.0708 22.145 16.4488 22.1142 16.804 22.0525C17.1592 21.9908 17.5058 21.8983 17.8437 21.775L24.18 28.065C24.365 28.25 24.5808 28.3425 24.8275 28.3425C25.0742 28.3425 25.29 28.25 25.475 28.065ZM19 37.5C16.4408 37.5 14.0358 37.0141 11.785 36.0422C9.53417 35.0703 7.57625 33.7525 5.91125 32.0887C4.24625 30.4237 2.92843 28.4658 1.9578 26.215C0.987167 23.9642 0.501233 21.5592 0.5 19C0.5 16.4408 0.985933 14.0358 1.9578 11.785C2.92967 9.53417 4.24748 7.57625 5.91125 5.91125C7.57625 4.24625 9.53417 2.92843 11.785 1.9578C14.0358 0.987167 16.4408 0.501233 19 0.5C21.5592 0.5 23.9642 0.985933 26.215 1.9578C28.4658 2.92967 30.4237 4.24748 32.0887 5.91125C33.7537 7.57625 35.0722 9.53417 36.044 11.785C37.0159 14.0358 37.5012 16.4408 37.5 19C37.5 21.5592 37.0141 23.9642 36.0422 26.215C35.0703 28.4658 33.7525 30.4237 32.0887 32.0887C30.4237 33.7537 28.4658 35.0722 26.215 36.044C23.9642 37.0159 21.5592 37.5012 19 37.5Z" fill="#FED11B"/>
</svg>
