<svg width="40" height="37" viewBox="0 0 40 37" fill="none" xmlns="http://www.w3.org/2000/svg">
<path d="M22.6464 15.7378L14.7536 7.84567L17.4 5.24592L22.6464 10.4918L33.1857 0L35.7857 2.59975L22.6464 15.7378ZM24.6429 37L11.6429 33.3789V15.6449H15.2643L26.7786 19.9159C27.8 20.2873 28.6277 20.9373 29.2616 21.8657C29.8955 22.7942 30.213 23.8156 30.2143 24.9297H26.5C25.2 24.9297 24.1786 24.8833 23.4357 24.7905C22.6929 24.6976 22.0429 24.5583 21.4857 24.3726L17.7714 23.1656L17.2143 24.9297L20.1393 25.9975C21.006 26.3379 21.7952 26.5546 22.5071 26.6474C23.219 26.7403 24.0548 26.7867 25.0143 26.7867H33.9286C35.9714 26.7867 37.4107 27.1191 38.2464 27.7839C39.0821 28.4487 39.5 29.3543 39.5 30.5006V32.3576L24.6429 37ZM0.5 36.0715V15.6449H7.92857V36.0715H0.5Z" fill="#FED11B"/>
</svg>
