<svg width="42" height="38" viewBox="0 0 42 38" fill="none" xmlns="http://www.w3.org/2000/svg">
<path d="M37.7727 35.5526V4.39474H4.22727V19.9737H0.5V0.5H41.5V35.5526H37.7727ZM15.4091 21.9211C13.3591 21.9211 11.6042 21.1583 10.1443 19.6329C8.68447 18.1075 7.95455 16.2737 7.95455 14.1316C7.95455 11.9895 8.68447 10.1557 10.1443 8.63026C11.6042 7.10482 13.3591 6.3421 15.4091 6.3421C17.4591 6.3421 19.214 7.10482 20.6739 8.63026C22.1337 10.1557 22.8636 11.9895 22.8636 14.1316C22.8636 16.2737 22.1337 18.1075 20.6739 19.6329C19.214 21.1583 17.4591 21.9211 15.4091 21.9211ZM0.5 37.5V32.0474C0.5 30.9439 0.772091 29.9299 1.31627 29.0056C1.86045 28.0812 2.5823 27.375 3.48182 26.8868C5.40758 25.8807 7.36439 25.1258 9.35227 24.6221C11.3402 24.1183 13.3591 23.8671 15.4091 23.8684C17.4591 23.8684 19.478 24.1203 21.4659 24.624C23.4538 25.1277 25.4106 25.882 27.3364 26.8868C28.2371 27.3737 28.9596 28.0799 29.5038 29.0056C30.048 29.9312 30.3194 30.9452 30.3182 32.0474V37.5H0.5Z" fill="#FED11B"/>
</svg>
