<svg width="24" height="25" viewBox="0 0 24 25" fill="none" xmlns="http://www.w3.org/2000/svg">
<g id="ri:global-line">
<path id="Vector" d="M12.0032 22.6504C6.48017 22.6504 2.00317 18.1734 2.00317 12.6504C2.00317 7.12739 6.48017 2.65039 12.0032 2.65039C17.5262 2.65039 22.0032 7.12739 22.0032 12.6504C22.0032 18.1734 17.5262 22.6504 12.0032 22.6504ZM9.71317 20.3174C8.72659 18.2247 8.15505 15.9606 8.03017 13.6504H4.06517C4.25976 15.1893 4.8971 16.6386 5.89974 17.8221C6.90239 19.0056 8.22719 19.8725 9.71317 20.3174ZM10.0332 13.6504C10.1842 16.0894 10.8812 18.3804 12.0032 20.4024C13.1555 18.3269 13.8286 16.0199 13.9732 13.6504H10.0332ZM19.9412 13.6504H15.9762C15.8513 15.9606 15.2798 18.2247 14.2932 20.3174C15.7792 19.8725 17.104 19.0056 18.1066 17.8221C19.1093 16.6386 19.7466 15.1893 19.9412 13.6504ZM4.06517 11.6504H8.03017C8.15505 9.34018 8.72659 7.07608 9.71317 4.98339C8.22719 5.42827 6.90239 6.29514 5.89974 7.47869C4.8971 8.66223 4.25976 10.1115 4.06517 11.6504ZM10.0342 11.6504H13.9722C13.8279 9.28099 13.1551 6.97392 12.0032 4.89839C10.8509 6.97384 10.1777 9.28091 10.0332 11.6504H10.0342ZM14.2932 4.98339C15.2798 7.07608 15.8513 9.34018 15.9762 11.6504H19.9412C19.7466 10.1115 19.1093 8.66223 18.1066 7.47869C17.104 6.29514 15.7792 5.42827 14.2932 4.98339Z" fill="#0000DC"/>
</g>
</svg>
