<svg width="136" height="137" viewBox="0 0 136 137" fill="none" xmlns="http://www.w3.org/2000/svg">
<g id="div" filter="url(#filter0_d_1_1254)">
<rect x="40.0032" y="36.6504" width="56" height="56" rx="28" fill="white" shape-rendering="crispEdges"/>
<g id="Group">
<path id="Vector" d="M62.5296 55.0714C62.5296 56.9608 60.9979 58.4925 59.1086 58.4925C57.2192 58.4925 55.6875 56.9608 55.6875 55.0714C55.6875 53.1821 57.2192 51.6504 59.1086 51.6504C60.9979 51.6504 62.5296 53.1821 62.5296 55.0714Z" fill="#2F88FF"/>
<path id="Vector_2" d="M62.5296 55.0714C62.5296 56.9608 60.9979 58.4925 59.1086 58.4925C57.2192 58.4925 55.6875 56.9608 55.6875 55.0714C55.6875 53.1821 57.2192 51.6504 59.1086 51.6504C60.9979 51.6504 62.5296 53.1821 62.5296 55.0714ZM62.5296 55.0714H70.0559M70.0559 55.0714L67.3191 52.3346M70.0559 55.0714L67.3191 57.8083" stroke="black" stroke-width="4" stroke-linecap="round" stroke-linejoin="round"/>
<path id="Vector_3" d="M73.4768 74.2296C73.4768 76.119 75.0085 77.6507 76.8979 77.6507C78.7872 77.6507 80.3189 76.119 80.3189 74.2296C80.3189 72.3403 78.7872 70.8086 76.8979 70.8086C75.0085 70.8086 73.4768 72.3403 73.4768 74.2296Z" fill="#2F88FF"/>
<path id="Vector_4" d="M73.4768 74.2296C73.4768 76.119 75.0084 77.6507 76.8978 77.6507C78.7872 77.6507 80.3189 76.119 80.3189 74.2296C80.3189 72.3403 78.7872 70.8086 76.8978 70.8086C75.0084 70.8086 73.4768 72.3403 73.4768 74.2296ZM73.4768 74.2296H65.9504M65.9504 74.2296L68.6873 71.4928M65.9504 74.2296L68.6873 76.9665" stroke="black" stroke-width="4" stroke-linecap="round" stroke-linejoin="round"/>
<path id="Vector_5" d="M74.1611 55.756C74.1611 57.6454 75.6928 59.1771 77.5822 59.1771C79.4716 59.1771 81.0032 57.6454 81.0032 55.756C81.0032 53.8666 79.4716 52.335 77.5822 52.335C75.6928 52.335 74.1611 53.8666 74.1611 55.756Z" fill="#2F88FF"/>
<path id="Vector_6" d="M77.5822 59.1771C75.6928 59.1771 74.1611 57.6454 74.1611 55.756C74.1611 53.8666 75.6928 52.335 77.5822 52.335C79.4716 52.335 81.0032 53.8666 81.0032 55.756C81.0032 57.6454 79.4716 59.1771 77.5822 59.1771ZM77.5822 59.1771V66.7034M77.5822 66.7034L80.319 63.9665M77.5822 66.7034L74.8453 63.9665" stroke="black" stroke-width="4" stroke-linecap="round" stroke-linejoin="round"/>
<path id="Vector_7" d="M55.0032 73.5451C55.0032 71.6557 56.5348 70.124 58.4242 70.124C60.3136 70.124 61.8453 71.6557 61.8453 73.5451C61.8453 75.4345 60.3136 76.9661 58.4242 76.9661C56.5348 76.9661 55.0032 75.4345 55.0032 73.5451Z" fill="#2F88FF"/>
<path id="Vector_8" d="M58.4242 70.124C56.5348 70.124 55.0032 71.6556 55.0032 73.545C55.0032 75.4344 56.5348 76.9661 58.4242 76.9661C60.3136 76.9661 61.8453 75.4344 61.8453 73.545C61.8453 71.6556 60.3136 70.124 58.4242 70.124ZM58.4242 70.124V62.5977M58.4242 62.5977L61.1611 65.3345M58.4242 62.5977L55.6874 65.3345" stroke="black" stroke-width="4" stroke-linecap="round" stroke-linejoin="round"/>
</g>
</g>
<defs>
<filter id="filter0_d_1_1254" x="0.00317383" y="0.650391" width="136" height="136" filterUnits="userSpaceOnUse" color-interpolation-filters="sRGB">
<feFlood flood-opacity="0" result="BackgroundImageFix"/>
<feColorMatrix in="SourceAlpha" type="matrix" values="0 0 0 0 0 0 0 0 0 0 0 0 0 0 0 0 0 0 127 0" result="hardAlpha"/>
<feOffset dy="4"/>
<feGaussianBlur stdDeviation="20"/>
<feComposite in2="hardAlpha" operator="out"/>
<feColorMatrix type="matrix" values="0 0 0 0 0 0 0 0 0 0 0 0 0 0 0 0 0 0 0.05 0"/>
<feBlend mode="normal" in2="BackgroundImageFix" result="effect1_dropShadow_1_1254"/>
<feBlend mode="normal" in="SourceGraphic" in2="effect1_dropShadow_1_1254" result="shape"/>
</filter>
</defs>
</svg>
