<svg width="20" height="21" viewBox="0 0 20 21" fill="none" xmlns="http://www.w3.org/2000/svg">
<g id="pepicons-pop:cv" clip-path="url(#clip0_1_1247)">
<g id="Group">
<path id="Vector" d="M7.80321 7.00047C8.36321 7.00047 8.81321 6.55047 8.81321 5.99047C8.81321 5.43047 8.36321 4.98047 7.80321 4.98047C7.24321 4.98047 6.79321 5.43047 6.79321 5.99047C6.79321 6.55047 7.24321 7.00047 7.80321 7.00047Z" fill="#BA1A1A"/>
<path id="Vector_2" fill-rule="evenodd" clip-rule="evenodd" d="M9.83317 9.20082C9.83317 8.12082 8.92317 7.34082 7.80317 7.34082C6.68317 7.34082 5.77317 8.12082 5.77317 9.20082V9.71082C5.77317 9.80082 5.81317 9.89082 5.87317 9.95082C5.93317 10.0108 6.02317 10.0508 6.11317 10.0508H9.49317C9.58317 10.0508 9.67317 10.0108 9.73317 9.95082C9.79317 9.89082 9.83317 9.80082 9.83317 9.71082V9.20082ZM5.75317 12.1508C5.75317 11.9519 5.83219 11.7611 5.97284 11.6205C6.1135 11.4798 6.30426 11.4008 6.50317 11.4008H13.5032C13.7021 11.4008 13.8929 11.4798 14.0335 11.6205C14.1742 11.7611 14.2532 11.9519 14.2532 12.1508C14.2532 12.3497 14.1742 12.5405 14.0335 12.6811C13.8929 12.8218 13.7021 12.9008 13.5032 12.9008H6.50317C6.30426 12.9008 6.1135 12.8218 5.97284 12.6811C5.83219 12.5405 5.75317 12.3497 5.75317 12.1508ZM5.75317 15.1508C5.75317 14.9519 5.83219 14.7611 5.97284 14.6205C6.1135 14.4798 6.30426 14.4008 6.50317 14.4008H13.5032C13.7021 14.4008 13.8929 14.4798 14.0335 14.6205C14.1742 14.7611 14.2532 14.9519 14.2532 15.1508C14.2532 15.3497 14.1742 15.5405 14.0335 15.6812C13.8929 15.8218 13.7021 15.9008 13.5032 15.9008H6.50317C6.30426 15.9008 6.1135 15.8218 5.97284 15.6812C5.83219 15.5405 5.75317 15.3497 5.75317 15.1508Z" fill="#BA1A1A"/>
<path id="Vector_3" fill-rule="evenodd" clip-rule="evenodd" d="M2.50317 3.15039C2.50317 2.04839 3.40117 1.15039 4.50317 1.15039H11.1932C11.7552 1.15039 12.2852 1.38839 12.6582 1.78139L12.6642 1.78839L16.9762 6.49039C17.3352 6.87339 17.5032 7.37439 17.5032 7.85039V18.1504C17.5032 19.2524 16.6052 20.1504 15.5032 20.1504H4.50317C3.40117 20.1504 2.50317 19.2524 2.50317 18.1504V3.15039ZM11.1922 3.15039H4.50317V18.1504H15.5032V7.84239L11.2072 3.15739L11.2042 3.15639C11.2005 3.15375 11.1965 3.15172 11.1922 3.15039Z" fill="#BA1A1A"/>
<path id="Vector_4" fill-rule="evenodd" clip-rule="evenodd" d="M11.1931 1.15039C11.4583 1.15039 11.7127 1.25575 11.9002 1.44328C12.0878 1.63082 12.1931 1.88517 12.1931 2.15039V6.85039H16.5031C16.6344 6.85039 16.7645 6.87626 16.8858 6.92651C17.0071 6.97677 17.1174 7.05043 17.2102 7.14328C17.3031 7.23614 17.3767 7.34638 17.427 7.46771C17.4773 7.58903 17.5031 7.71907 17.5031 7.85039C17.5031 7.98171 17.4773 8.11175 17.427 8.23307C17.3767 8.3544 17.3031 8.46464 17.2102 8.5575C17.1174 8.65036 17.0071 8.72402 16.8858 8.77427C16.7645 8.82452 16.6344 8.85039 16.5031 8.85039H11.1931C10.9279 8.85039 10.6735 8.74503 10.486 8.5575C10.2985 8.36996 10.1931 8.11561 10.1931 7.85039V2.15039C10.1931 1.88517 10.2985 1.63082 10.486 1.44328C10.6735 1.25575 10.9279 1.15039 11.1931 1.15039Z" fill="#BA1A1A"/>
</g>
</g>
<defs>
<clipPath id="clip0_1_1247">
<rect width="20" height="20" fill="white" transform="translate(0.00317383 0.650391)"/>
</clipPath>
</defs>
</svg>
