<svg width="141" height="71" viewBox="0 0 141 71" fill="none" xmlns="http://www.w3.org/2000/svg">
<g id="ribbon-inspire">
<path id="Vector" d="M130.881 10.4066C127.231 6.67709 122.879 3.80821 117.965 2.08688C113.192 0.365556 107.997 -0.208219 101.96 0.365556C96.6256 0.795888 91.4312 2.08688 86.6579 4.23854C82.025 6.3902 77.6729 9.25908 73.04 13.2755C71.9169 14.2796 70.7938 15.2837 69.5303 16.5747C66.3013 14.1362 62.7916 11.4107 59.1414 8.97219C54.3681 5.67298 50.4372 3.66477 46.5063 2.23033C36.9598 -1.06888 26.2901 -0.0647754 17.7263 4.81232C8.60092 10.1197 2.14297 19.587 0.739071 30.3453C-0.805221 41.3905 2.98532 52.4357 10.7068 60.1817C14.3569 63.9112 18.9898 66.6366 23.7631 68.358C27.2728 69.5055 31.0634 70.0793 35.2751 70.0793C36.3982 70.0793 37.5213 70.0793 38.6444 69.9358C48.3314 69.2186 57.5971 65.4891 66.3013 58.8907C68.1264 57.5997 69.8111 56.0218 71.6361 54.4439C75.0055 56.8825 78.3749 59.1776 81.7442 61.3292C86.9387 64.485 91.2908 66.6366 95.6429 68.0711C105.189 71.2268 115.438 70.2227 123.861 65.3456C132.846 60.0382 139.023 50.5709 140.568 40.0995C141.972 29.0543 138.322 18.0092 130.881 10.4066ZM108.98 40.9602C106.593 42.3946 103.505 41.534 98.5911 38.5216C96.766 37.3741 94.8005 36.0831 93.1159 34.6487C93.537 34.2183 94.0986 33.788 94.5198 33.5011C98.5911 30.3453 101.82 28.624 104.768 28.3371C107.997 28.0502 110.945 29.915 111.928 32.7839C113.051 35.7962 111.647 39.3823 108.98 40.9602ZM48.4718 35.2224C47.9102 35.6528 47.489 36.0831 46.9275 36.6569C43.1369 39.8126 39.7676 41.534 36.679 41.8208C33.45 42.2512 30.5018 40.3864 29.3787 37.5175C28.2556 34.5052 29.3787 31.3494 32.0461 29.6281C33.3096 28.9109 34.7135 28.3371 36.1174 28.3371H36.679C38.7848 28.4806 40.8907 29.7716 42.5754 30.7757C44.5408 32.2101 46.6467 33.6445 48.4718 35.2224Z" fill="#0000DC"/>
<path id="Vector_2" d="M106.733 3.52148C92.6939 3.52148 81.8839 8.68547 69.9507 21.1651C54.5078 9.40269 46.3652 3.66493 34.432 3.66493C17.4448 3.66493 3.68652 17.8659 3.68652 35.2226C3.68652 52.5793 17.5852 66.6368 34.5724 66.6368C44.6805 66.6368 56.0521 64.6286 71.3546 49.9973C86.7976 61.4728 97.4672 66.4934 106.733 66.4934C123.72 66.4934 137.478 52.2924 137.478 34.9357C137.478 17.579 123.72 3.52148 106.733 3.52148ZM106.873 63.9114C97.8884 63.9114 87.3591 58.8908 71.7758 46.985C68.8276 44.6899 55.3501 33.2144 55.2097 33.0709C48.0498 27.0463 41.7323 22.0257 35.5551 22.4561C28.5356 22.8864 23.2008 28.1938 23.2008 35.2226C23.2008 42.2513 28.8164 47.8457 35.6955 47.8457C44.8209 47.8457 53.1039 39.3825 55.4905 36.657C59.0003 39.6693 66.3006 45.8374 69.3892 48.4194C54.929 62.0466 44.1189 64.0548 34.7128 64.0548C19.1295 64.0548 6.35394 51.1449 6.35394 35.2226C6.35394 19.3003 18.9891 6.24692 34.5724 6.24692C45.944 6.24692 53.8058 11.9847 69.3892 23.7471C71.6354 25.4684 76.5491 29.3414 80.9012 32.6406C85.2533 36.0833 87.9207 38.0915 88.3418 38.3784C88.763 38.6652 89.1842 39.0956 89.7458 39.3825C93.9575 42.5382 100.275 47.2719 106.031 47.5588C109.12 47.7022 112.208 46.6981 114.454 44.403C116.981 41.9645 118.526 38.5218 118.526 34.7923C118.526 27.7635 112.91 22.1692 106.031 22.1692C97.3268 22.1692 88.6226 30.6324 86.0956 33.3578C84.9725 32.4972 83.8494 31.6365 82.5858 30.6324C78.9357 27.7635 74.8644 24.6077 72.197 22.5995C83.2878 10.9806 93.3959 6.10347 106.733 6.10347C122.316 6.10347 135.092 19.0134 135.092 34.9357C135.092 50.858 122.457 63.7679 106.873 63.9114ZM53.3847 35.0791C51.1384 37.5177 43.417 45.2637 35.5551 45.2637C30.0799 45.2637 25.5874 40.53 25.5874 35.2226C25.5874 29.9152 29.7991 25.4684 35.5551 25.0381H36.1167C41.1707 25.0381 46.9267 29.6283 53.3847 35.0791ZM87.9207 34.9357C90.4477 32.3537 98.4499 24.8946 105.75 24.8946C111.225 24.8946 115.718 29.3414 115.718 34.9357C115.718 37.8046 114.595 40.6735 112.489 42.5382C110.664 44.2596 108.277 45.1202 105.891 44.9768C100.977 44.6899 94.9402 40.2431 91.0093 37.2308C90.4477 36.8005 90.0265 36.5136 89.6054 36.2267C89.465 36.2267 88.9034 35.7964 87.9207 34.9357Z" fill="white"/>
</g>
</svg>
