<svg width="51" height="44" viewBox="0 0 51 44" fill="none" xmlns="http://www.w3.org/2000/svg">
<path d="M4.66667 44C3.52084 44 2.53959 43.5209 1.72292 42.5627C0.906253 41.6044 0.498615 40.4539 0.500004 39.1111V4.88889C0.500004 3.54445 0.908337 2.39311 1.725 1.43489C2.54167 0.47667 3.52223 -0.00162548 4.66667 4.15016e-06H46.3333C47.4792 4.15016e-06 48.4604 0.479115 49.2771 1.43734C50.0937 2.39556 50.5014 3.54608 50.5 4.88889V39.1111C50.5 40.4556 50.0917 41.6069 49.275 42.5651C48.4583 43.5233 47.4778 44.0016 46.3333 44H4.66667ZM19.25 26.8889C20.9861 26.8889 22.4618 26.1759 23.6771 24.75C24.8924 23.3241 25.5 21.5926 25.5 19.5556C25.5 17.5185 24.8924 15.787 23.6771 14.3611C22.4618 12.9352 20.9861 12.2222 19.25 12.2222C17.5139 12.2222 16.0382 12.9352 14.8229 14.3611C13.6076 15.787 13 17.5185 13 19.5556C13 21.5926 13.6076 23.3241 14.8229 24.75C16.0382 26.1759 17.5139 26.8889 19.25 26.8889ZM40.0833 36.6667L44.25 31.7778L41.125 26.8889H37.6875C37.4792 26.1556 37.3056 25.3709 37.1667 24.5349C37.0278 23.6989 36.9583 22.8539 36.9583 22C36.9583 21.1444 37.0278 20.3199 37.1667 19.5262C37.3056 18.7326 37.4792 17.9276 37.6875 17.1111H41.125L44.25 12.2222L40.0833 7.33334C38.2083 9.04445 36.6979 11.2143 35.5521 13.8429C34.4062 16.4715 33.8333 19.1905 33.8333 22C33.8333 24.8111 34.4062 27.531 35.5521 30.1596C36.6979 32.7881 38.2083 34.9572 40.0833 36.6667ZM4.875 39.1111H33.625C32.1667 36.0556 30.1528 33.6616 27.5833 31.9293C25.0139 30.197 22.2361 29.3317 19.25 29.3333C16.2639 29.3333 13.4861 30.1995 10.9167 31.9318C8.34723 33.6641 6.33334 36.0572 4.875 39.1111Z" fill="white"/>
</svg>
