<svg width="51" height="50" viewBox="0 0 51 50" fill="none" xmlns="http://www.w3.org/2000/svg">
<g clip-path="url(#clip0_667_7625)">
<path d="M25.5 50L19.25 40.625H22.375V34.375H28.625V40.625H31.75L25.5 50ZM47.375 3.125V28.125H3.625V3.125H47.375ZM50.5 0H0.5V31.25H50.5V0Z" fill="white"/>
<path d="M25.5 6.25C27.9864 6.25 30.371 7.23772 32.1291 8.99587C33.8873 10.754 34.875 13.1386 34.875 15.625C34.875 18.1114 33.8873 20.496 32.1291 22.2541C30.371 24.0123 27.9864 25 25.5 25H41.125V21.875H44.25V9.375H41.125V6.25H25.5ZM16.125 15.625C16.125 13.1386 17.1127 10.754 18.8709 8.99587C20.629 7.23772 23.0136 6.25 25.5 6.25H9.875V9.375H6.75V21.875H9.875V25H25.5C23.0136 25 20.629 24.0123 18.8709 22.2541C17.1127 20.496 16.125 18.1114 16.125 15.625Z" fill="white"/>
</g>
<defs>
<clipPath id="clip0_667_7625">
<rect width="50" height="50" fill="white" transform="translate(0.5)"/>
</clipPath>
</defs>
</svg>
