<svg width="51" height="50" viewBox="0 0 51 50" fill="none" xmlns="http://www.w3.org/2000/svg">
<g clip-path="url(#clip0_667_7587)">
<path d="M25.5 22.25C23.975 22.25 22.75 23.475 22.75 25C22.75 26.525 23.975 27.75 25.5 27.75C27.025 27.75 28.25 26.525 28.25 25C28.25 23.475 27.025 22.25 25.5 22.25ZM25.5 0C11.7 0 0.5 11.2 0.5 25C0.5 38.8 11.7 50 25.5 50C39.3 50 50.5 38.8 50.5 25C50.5 11.2 39.3 0 25.5 0ZM30.975 30.475L10.5 40L20.025 19.525L40.5 10L30.975 30.475Z" fill="white"/>
</g>
<defs>
<clipPath id="clip0_667_7587">
<rect width="50" height="50" fill="white" transform="translate(0.5)"/>
</clipPath>
</defs>
</svg>
