<svg width="51" height="50" viewBox="0 0 51 50" fill="none" xmlns="http://www.w3.org/2000/svg">
<g clip-path="url(#clip0_667_7608)">
<g clip-path="url(#clip1_667_7608)">
<path d="M23.2273 43.0952L41.8636 23.5714C43 22.381 44.3636 21.6667 45.9545 21.6667C47.5455 21.6667 48.9091 22.381 50.0455 23.5714L50.5 24.0476V4.7619C50.5 2.14286 48.4545 0 45.9545 0H5.04545C2.54545 0 0.5 2.14286 0.5 4.7619V42.8571C0.5 45.4762 2.54545 47.619 5.04545 47.619H23.2273V43.0952ZM5.04545 4.7619H45.9545V11.9048H5.04545V4.7619ZM45.9545 26.4286C45.7273 26.4286 45.2727 26.6667 45.0455 26.9048L42.7727 29.2857L47.5455 34.2857L49.8182 31.9048C50.2727 31.4286 50.2727 30.4762 49.8182 30L46.8636 26.9048C46.6364 26.6667 46.4091 26.4286 45.9545 26.4286ZM41.6364 30.7143L27.7727 45V50H32.5455L46.4091 35.4762L41.6364 30.7143Z" fill="white"/>
</g>
</g>
<defs>
<clipPath id="clip0_667_7608">
<rect width="50" height="50" fill="white" transform="translate(0.5)"/>
</clipPath>
<clipPath id="clip1_667_7608">
<rect width="50" height="50" fill="white" transform="translate(0.5)"/>
</clipPath>
</defs>
</svg>
