<svg width="51" height="50" viewBox="0 0 51 50" fill="none" xmlns="http://www.w3.org/2000/svg">
<g clip-path="url(#clip0_667_7594)">
<path d="M47.5455 39.5238V37.1429L50.0455 35.2381C50.2727 35 50.5 34.7619 50.2727 34.5238L48 30.4762C48 30.2381 47.5455 30.2381 47.3182 30.2381L44.5909 31.4286C43.9091 30.9524 43.2273 30.4762 42.5455 30.2381L42.0909 27.1429C42.0909 26.9048 41.8636 26.6667 41.6364 26.6667H37.0909C36.6364 26.6667 36.4091 26.9048 36.4091 27.1429L35.9545 30.2381C35.2727 30.7143 34.8182 30.9524 34.1364 31.4286L31.4091 30.2381C31.1818 30.2381 30.9545 30.2381 30.7273 30.4762L28.4545 34.5238C28.4545 34.7619 28.4545 35 28.6818 35.2381L31.1818 37.1429V39.5238L28.6818 41.4286C28.4545 41.6667 28.2273 41.9048 28.4545 42.1429L30.7273 46.1905C30.9545 46.4286 31.1818 46.4286 31.4091 46.4286L34.1364 45.2381C34.5909 45.7143 35.2727 46.1905 35.9545 46.4286L36.4091 49.5238C36.6364 49.7619 36.8636 50 37.0909 50H41.6364C41.8636 50 42.0909 49.7619 42.0909 49.5238L42.5455 46.4286C43.2273 45.9524 43.6818 45.7143 44.3636 45.2381L47.0909 46.1905C47.3182 46.1905 47.5455 46.1905 47.7727 45.9524L50.0455 41.9048C50.2727 41.6667 50.2727 41.4286 50.0455 41.4286L47.5455 39.5238ZM39.1364 41.6667C37.3182 41.6667 35.7273 40 35.7273 38.0952C35.7273 36.1905 37.3182 34.5238 39.1364 34.5238C40.9545 34.5238 42.5455 36.1905 42.5455 38.0952C42.5455 40 40.9545 41.6667 39.1364 41.6667ZM23.2273 38.0952C23.2273 28.8095 30.2727 21.4286 39.1364 21.4286C43.6818 21.4286 47.5455 23.3333 50.5 26.4286V4.7619C50.5 2.14286 48.4545 0 45.9545 0H5.04545C2.54545 0 0.5 2.14286 0.5 4.7619V42.8571C0.5 45.4762 2.54545 47.619 5.04545 47.619H26.1818C24.3636 45 23.2273 41.6667 23.2273 38.0952ZM5.04545 4.7619H45.9545V11.9048H5.04545V4.7619Z" fill="white"/>
</g>
<defs>
<clipPath id="clip0_667_7594">
<rect width="50" height="50" fill="white" transform="translate(0.5)"/>
</clipPath>
</defs>
</svg>
