<svg width="51" height="50" viewBox="0 0 51 50" fill="none" xmlns="http://www.w3.org/2000/svg">
<g clip-path="url(#clip0_667_7616)">
<g clip-path="url(#clip1_667_7616)">
<path d="M12.0333 6.86429L12.075 6.84286L12.2667 6.74643C13.4576 6.16884 14.6939 5.66286 15.9667 5.23214C18.4583 4.39286 21.8333 3.57143 25.5 3.57143C29.1667 3.57143 32.5417 4.39286 35.0375 5.23214C36.3089 5.66284 37.5438 6.16882 38.7333 6.74643C38.8208 6.78929 38.8833 6.81786 38.9208 6.84286L38.9625 6.86429H38.9667C39.4328 7.10738 39.9915 7.18405 40.5229 7.0778C41.0542 6.97156 41.5157 6.69088 41.8083 6.2961C42.1008 5.90131 42.2009 5.42393 42.0872 4.96653C41.9734 4.50914 41.6549 4.10824 41.2 3.85L41.1875 3.84286L41.1667 3.83214L41.0917 3.79286C40.702 3.59318 40.306 3.40263 39.9042 3.22143C38.8189 2.7328 37.7033 2.29525 36.5625 1.91071C33.7708 0.964286 29.8542 0 25.5 0C21.1417 0 17.2292 0.964286 14.4375 1.91071C12.9664 2.40739 11.5379 2.99216 10.1625 3.66071C10.0773 3.70407 9.99256 3.74812 9.90833 3.79286L9.83333 3.82857L9.8125 3.84286L9.80417 3.84643C9.33727 4.0998 9.00693 4.50178 8.88582 4.96392C8.7647 5.42607 8.86273 5.91052 9.15833 6.31071C9.45394 6.71091 9.92291 6.99406 10.4621 7.09787C11.0012 7.20168 11.5664 7.11766 12.0333 6.86429ZM8.83333 10.7143C6.6232 10.7143 4.50358 11.4668 2.94078 12.8064C1.37797 14.1459 0.5 15.9627 0.5 17.8571V32.1429C0.5 34.0373 1.37797 35.8541 2.94078 37.1936C4.50358 38.5332 6.6232 39.2857 8.83333 39.2857H25.5C27.7101 39.2857 29.8298 38.5332 31.3926 37.1936C32.9554 35.8541 33.8333 34.0373 33.8333 32.1429V17.8571C33.8333 15.9627 32.9554 14.1459 31.3926 12.8064C29.8298 11.4668 27.7101 10.7143 25.5 10.7143H8.83333ZM50.5 16.0714C50.5 15.7398 50.3923 15.4147 50.1889 15.1326C49.9854 14.8505 49.6944 14.6225 49.3484 14.4742C49.0023 14.3259 48.6149 14.2631 48.2296 14.2929C47.8442 14.3227 47.4762 14.4439 47.1667 14.6429L38.8333 20C38.5746 20.1663 38.3646 20.382 38.2199 20.63C38.0753 20.8779 38 21.1513 38 21.4286V28.5714C38 28.8487 38.0753 29.1221 38.2199 29.37C38.3646 29.618 38.5746 29.8337 38.8333 30L47.1667 35.3571C47.4762 35.5561 47.8442 35.6773 48.2296 35.7071C48.6149 35.7369 49.0023 35.6741 49.3484 35.5258C49.6944 35.3775 49.9854 35.1495 50.1889 34.8674C50.3923 34.5853 50.5 34.2602 50.5 33.9286V16.0714ZM12.0375 43.1393L12.0333 43.1357C11.5672 42.8926 11.0085 42.816 10.4771 42.9222C9.94576 43.0284 9.48425 43.3091 9.19175 43.7039C8.89924 44.0987 8.7991 44.5761 8.91284 45.0335C9.02657 45.4909 9.34511 45.8918 9.8 46.15L9.8125 46.1571L9.83333 46.1679L9.90833 46.2071C9.96667 46.2429 10.0542 46.2821 10.1625 46.3393C10.3833 46.4464 10.6958 46.6 11.0958 46.7821C11.8917 47.1393 13.0333 47.6143 14.4375 48.0893C17.2292 49.0321 21.1458 50 25.5 50C29.8583 50 33.7708 49.0357 36.5625 48.0893C38.0336 47.5926 39.4621 47.0078 40.8375 46.3393L41.0917 46.2071L41.1667 46.1714L41.1875 46.1571L41.1958 46.1536C41.6627 45.8997 41.997 45.4973 42.1177 45.0348C42.2385 44.5723 42.1399 44.0877 41.8437 43.6875C41.5476 43.2873 41.0781 43.0043 40.5385 42.9009C39.999 42.7974 39.4336 42.8819 38.9667 43.1357L38.925 43.1607L38.7333 43.2536C37.5424 43.8312 36.3061 44.3372 35.0333 44.7679C32.5417 45.6071 29.1667 46.4286 25.5 46.4286C21.8333 46.4286 18.4583 45.6071 15.9625 44.7679C14.6912 44.3369 13.4563 43.8309 12.2667 43.2536C12.2038 43.2219 12.1413 43.1898 12.0792 43.1571L12.0375 43.1393Z" fill="white"/>
</g>
</g>
<defs>
<clipPath id="clip0_667_7616">
<rect width="50" height="50" fill="white" transform="translate(0.5)"/>
</clipPath>
<clipPath id="clip1_667_7616">
<rect width="50" height="50" fill="white" transform="translate(0.5)"/>
</clipPath>
</defs>
</svg>
